<svg xmlns="http://www.w3.org/2000/svg" viewBox="0 0 166.15 45.59"><defs><style>.cls-1{fill:#0761b0;}.cls-2{fill:#6ab2e1;}.cls-3{fill:#9bdafa;}</style></defs><title>TEAMLOGO_rocketry_2row_blue</title><g id="Team_Font"><path class="cls-1" d="M86.33,38.64A5.14,5.14,0,0,1,89,38V39l-.26,0a3.83,3.83,0,0,0-3,1.19,4.82,4.82,0,0,0-1.07,3.32v5.95H83.64V38.06h1v2.49A3.89,3.89,0,0,1,86.33,38.64Z" transform="translate(-5.21 -8.22)"/><path class="cls-1" d="M93.5,48.82a5.27,5.27,0,0,1-2-2.06,6.41,6.41,0,0,1,0-6,5.27,5.27,0,0,1,2-2.06,6.06,6.06,0,0,1,5.84,0,5.31,5.31,0,0,1,2,2.06,6.34,6.34,0,0,1,0,6,5.31,5.31,0,0,1-2,2.06,6.06,6.06,0,0,1-5.84,0ZM98.77,48a4.42,4.42,0,0,0,1.64-1.71,5.47,5.47,0,0,0,0-5,4.42,4.42,0,0,0-1.64-1.71,4.85,4.85,0,0,0-4.71,0,4.42,4.42,0,0,0-1.64,1.71,5.47,5.47,0,0,0,0,5A4.42,4.42,0,0,0,94.06,48a4.85,4.85,0,0,0,4.71,0Z" transform="translate(-5.21 -8.22)"/><path class="cls-1" d="M107.07,48.82A5.37,5.37,0,0,1,105,46.76a6.45,6.45,0,0,1,0-6,5.37,5.37,0,0,1,2.06-2.06,6.12,6.12,0,0,1,3-.73,5.72,5.72,0,0,1,2.5.54,4.61,4.61,0,0,1,1.83,1.56l-.81.59a4,4,0,0,0-1.52-1.28,4.71,4.71,0,0,0-2-.42,4.8,4.8,0,0,0-2.4.6A4.22,4.22,0,0,0,106,41.25a5.59,5.59,0,0,0,0,5A4.22,4.22,0,0,0,107.65,48a4.8,4.8,0,0,0,2.4.6,4.71,4.71,0,0,0,2-.42,4,4,0,0,0,1.52-1.28l.81.59A4.61,4.61,0,0,1,112.55,49a5.72,5.72,0,0,1-2.5.54A5.92,5.92,0,0,1,107.07,48.82Z" transform="translate(-5.21 -8.22)"/><path class="cls-1" d="M121.53,43.38l-3,2.71v3.39h-1.1V33.25h1.1V44.73l7.31-6.67h1.4l-4.93,4.62,5.41,6.8h-1.36Z" transform="translate(-5.21 -8.22)"/><path class="cls-1" d="M139.52,44H129.7a4.75,4.75,0,0,0,.67,2.38,4.34,4.34,0,0,0,1.72,1.6,5.17,5.17,0,0,0,2.44.57,5.27,5.27,0,0,0,2.07-.4A4.06,4.06,0,0,0,138.18,47l.64.72A4.89,4.89,0,0,1,137,49.09a6.18,6.18,0,0,1-2.44.48,6.09,6.09,0,0,1-3-.75,5.35,5.35,0,0,1-2.09-2,6,6,0,0,1-.76-3,6.29,6.29,0,0,1,.71-3,5.26,5.26,0,0,1,2-2.06,5.34,5.34,0,0,1,2.8-.75,5.43,5.43,0,0,1,2.79.73,5.2,5.2,0,0,1,2,2,6.22,6.22,0,0,1,.71,3Zm-7.59-4.56A4.16,4.16,0,0,0,130.38,41a5,5,0,0,0-.66,2.2h8.75a4.58,4.58,0,0,0-.66-2.19,4.31,4.31,0,0,0-1.55-1.51,4.37,4.37,0,0,0-2.17-.55A4.33,4.33,0,0,0,131.93,39.47Z" transform="translate(-5.21 -8.22)"/><path class="cls-1" d="M148.6,48.76a2.79,2.79,0,0,1-1,.6,4.07,4.07,0,0,1-1.3.21,2.83,2.83,0,0,1-3.11-3.11V39h-2.1v-.94h2.1v-2.5h1.1v2.5h3.63V39h-3.63v7.35a2.41,2.41,0,0,0,.53,1.7,2.09,2.09,0,0,0,1.59.58,2.52,2.52,0,0,0,1.77-.64Z" transform="translate(-5.21 -8.22)"/><path class="cls-1" d="M154.33,38.64A5.16,5.16,0,0,1,157,38V39l-.26,0a3.79,3.79,0,0,0-3,1.19,4.77,4.77,0,0,0-1.08,3.32v5.95h-1.09V38.06h1.05v2.49A3.94,3.94,0,0,1,154.33,38.64Z" transform="translate(-5.21 -8.22)"/><path class="cls-1" d="M169.76,38.06l-5.87,13a5.08,5.08,0,0,1-1.52,2.15,3.34,3.34,0,0,1-2,.63,4,4,0,0,1-1.48-.26,3,3,0,0,1-1.17-.77l.55-.83a2.84,2.84,0,0,0,2.12.9,2.22,2.22,0,0,0,1.42-.46,4.13,4.13,0,0,0,1.1-1.57l.61-1.38-5.14-11.38h1.16l4.57,10.22,4.57-10.22Z" transform="translate(-5.21 -8.22)"/></g><g id="WARR_Font"><path class="cls-1" d="M112.24,8.23l-6,18.66h-5.65L97,15.53,93.24,26.89H87.59l-6-18.66H87l3.75,11.92,4-11.92h4.85l3.76,12,3.92-12Z" transform="translate(-5.21 -8.22)"/><path class="cls-1" d="M126,23.26h-7.89l-1.47,3.63h-5.38l8.23-18.66h5.2L133,26.89h-5.5Zm-1.55-3.89-2.4-6-2.4,6Z" transform="translate(-5.21 -8.22)"/><path class="cls-1" d="M142.6,21.93h-2.87v5h-5.28V8.23H143a10.66,10.66,0,0,1,4.4.84,6.35,6.35,0,0,1,3.89,6.06,6.55,6.55,0,0,1-1,3.54,6.35,6.35,0,0,1-2.7,2.35l4,5.87H146Zm2.51-8.82a3.64,3.64,0,0,0-2.45-.72h-2.93v5.46h2.93a3.69,3.69,0,0,0,2.45-.7,2.52,2.52,0,0,0,.83-2A2.54,2.54,0,0,0,145.11,13.11Z" transform="translate(-5.21 -8.22)"/><path class="cls-1" d="M162.33,21.93h-2.88v5h-5.28V8.23h8.53a10.63,10.63,0,0,1,4.4.84A6.31,6.31,0,0,1,171,15.13a6.55,6.55,0,0,1-.94,3.54A6.43,6.43,0,0,1,167.34,21l4,5.87h-5.65Zm2.5-8.82a3.62,3.62,0,0,0-2.45-.72h-2.93v5.46h2.93a3.67,3.67,0,0,0,2.45-.7,2.52,2.52,0,0,0,.83-2A2.54,2.54,0,0,0,164.83,13.11Z" transform="translate(-5.21 -8.22)"/></g><g id="Logo"><path class="cls-1" d="M28,8.22,5.21,31,28,53.73,50.72,31ZM28,47,11.9,31,28,14.91,44,31Z" transform="translate(-5.21 -8.22)"/><polygon class="cls-2" points="33.59 0 56.34 22.75 33.59 45.51 30.24 42.16 49.65 22.75 30.24 3.35 33.59 0"/><polygon class="cls-2" points="22.75 10.83 26.1 14.18 17.52 22.75 26.1 31.33 22.75 34.67 10.83 22.75 22.75 10.83"/><polygon class="cls-3" points="28.17 16.25 31.52 19.59 28.36 22.75 31.52 25.91 28.17 29.26 21.67 22.75 28.17 16.25"/><polygon class="cls-3" points="44.42 0 67.17 22.75 44.42 45.51 41.08 42.16 60.49 22.75 41.08 3.35 44.42 0"/></g></svg>